# xmcd CD database file generated by OrangeCD 6.2
#
# Track frame offsets:
#	150
#	18817
#	31750
#	41627
#	66049
#	86305
#	102338
#	117029
#	126134
#	139320
#	164153
#
# Disc length: 2491 seconds
#
# Revision: 3
# Processed by: cddbd v1.5.2PL0 Copyright (c) Steve Scherf et al.
# Submitted via: OrangeCD 6.2
#
DISCID=8a09b90b
DTITLE=Jeff Walker Und Die Flüffers - Welcome To Carcass Cuntry
DYEAR=2006
DGENRE=Death Metal
TTITLE0=The Man Comes Around
TTITLE1=I Can't Help It (If I'm Still In Love With You)
TTITLE2=You're Still On My Mind
TTITLE3=Sunday Mornin' Comin' Down
TTITLE4=Mississippi
TTITLE5=I Just Dropped In (To See What Condition My Condition Was In)
TTITLE6=I'm So Lonesome I Could Cry
TTITLE7=Once A Day
TTITLE8=The End Of The World
TTITLE9=Rocky Mountain High
TTITLE10=Keep On Rocking In The Free World
EXTD=
EXTT0=
EXTT1=
EXTT2=
EXTT3=
EXTT4=
EXTT5=
EXTT6=
EXTT7=
EXTT8=
EXTT9=
EXTT10=
PLAYORDER=
